<?xml version="1.0" encoding="UTF-8" standalone="no"?>
<svg
   xmlns:dc="http://purl.org/dc/elements/1.1/"
   xmlns:cc="http://creativecommons.org/ns#"
   xmlns:rdf="http://www.w3.org/1999/02/22-rdf-syntax-ns#"
   xmlns:svg="http://www.w3.org/2000/svg"
   xmlns="http://www.w3.org/2000/svg"
   xmlns:sodipodi="http://sodipodi.sourceforge.net/DTD/sodipodi-0.dtd"
   xmlns:inkscape="http://www.inkscape.org/namespaces/inkscape"
   width="210mm"
   height="297mm"
   viewBox="0 0 210 297"
   version="1.1"
   id="svg269"
   inkscape:version="1.0 (1.0+r73+1)"
   sodipodi:docname="CascadiaCode.svg">
  <defs
     id="defs263" />
  <sodipodi:namedview
     units="mm"
     inkscape:showpageshadow="true"
     borderlayer="false"
     inkscape:pagecheckerboard="false"
     viewbox-y="0"
     viewbox-height="300"
     id="base"
     pagecolor="#ffffff"
     bordercolor="#666666"
     borderopacity="1.0"
     inkscape:pageopacity="0.0"
     inkscape:pageshadow="2"
     inkscape:zoom="7.919596"
     inkscape:cx="44.220498"
     inkscape:cy="72.363682"
     inkscape:document-units="mm"
     inkscape:current-layer="svg269"
     inkscape:document-rotation="0"
     showgrid="false"
     inkscape:window-width="1902"
     inkscape:window-height="1546"
     inkscape:window-x="810"
     inkscape:window-y="218"
     inkscape:window-maximized="0" />
  <metadata
     id="metadata266">
    <rdf:RDF>
      <cc:Work
         rdf:about="">
        <dc:format>image/svg+xml</dc:format>
        <dc:type
           rdf:resource="http://purl.org/dc/dcmitype/StillImage" />
        <dc:title />
      </cc:Work>
    </rdf:RDF>
  </metadata>
  <g
     inkscape:label="A"
     id="g65">
    <text
       xml:space="preserve"
       style="font-style:normal;font-variant:normal;font-weight:normal;font-stretch:normal;font-size:10.5833px;line-height:1.25;font-family:'Cascadia Code';-inkscape-font-specification:'Cascadia Code, Normal';font-variant-ligatures:normal;font-variant-caps:normal;font-variant-numeric:normal;font-variant-east-asian:normal;letter-spacing:0px;word-spacing:0px;opacity:0.25;stroke-width:0.264583"
       x="-0.2325432"
       y="7.3380299"
       id="text47"><tspan
         sodipodi:role="line"
         id="tspan45"
         x="-0.2325432"
         y="7.3380299"
         style="font-style:normal;font-variant:normal;font-weight:normal;font-stretch:normal;font-size:10.5833px;font-family:'Cascadia Code';-inkscape-font-specification:'Cascadia Code, Normal';font-variant-ligatures:normal;font-variant-caps:normal;font-variant-numeric:normal;font-variant-east-asian:normal;stroke-width:0.264583">A</tspan></text>
    <path
       id="path67"
       d="M 1.8280347,4.568681 2.8171211,0.89291132 2.9108238,0.89312998 3.9078561,4.5697023 Z"
       style="opacity:0.5;fill:none;stroke:#000000;stroke-width:0.264583px;stroke-linecap:butt;stroke-linejoin:miter;stroke-opacity:1" />
    <path
       style="opacity:0.5;fill:none;stroke:#000000;stroke-width:0.264583px;stroke-linecap:butt;stroke-linejoin:miter;stroke-opacity:1"
       d="M 0.00389533,7.3395711 2.1110519,8.3016989e-4 H 3.5895806 L 5.7201178,7.3375122 H 4.6473916 L 4.1675954,5.5342136 H 1.5726228 L 1.0941688,7.332129 Z"
       id="path49"
       sodipodi:nodetypes="ccccccccc" />
  </g>
  <g
     inkscape:label="a"
     id="g60">
    <text
       xml:space="preserve"
       style="font-size:10.5833px;line-height:1.25;font-family:'Cascadia Code';-inkscape-font-specification:'Cascadia Code, Normal';letter-spacing:0px;word-spacing:0px;opacity:0.25;stroke-width:0.264583"
       x="-0.49609217"
       y="16.214445"
       id="text53"><tspan
         sodipodi:role="line"
         id="tspan51"
         x="-0.49609217"
         y="16.214445"
         style="stroke-width:0.264583">a</tspan></text>
    <path
       id="path78"
       d="m 0.77613162,10.691085 1.37869848,0.01621 0.5336903,0.05773 0.5268198,0.150784 0.4153207,0.189537 0.334904,0.238202 0.2706603,0.336253 0.2088888,0.43103 0.081734,0.400887 0.01964,0.415947 v 2.309796 l 0.929314,0.108446 v 0.868272 L 3.7480279,16.252609 3.6950609,15.05958 H 3.5612628 l -0.029617,0.265856 -0.1772888,0.38903 -0.261896,0.277802 -0.3709349,0.190011 -0.440685,0.115628 -0.5358336,0.0092 L 1.1649521,16.239123 0.72589021,16.073811 0.34845077,15.779634 0.12232961,15.402163 -0.00465722,14.932131 -0.00420447,14.53363 0.10884458,14.088129 0.31874401,13.70311 0.67568304,13.373791 1.0924533,13.16425 l 0.4781872,-0.14646 0.5763559,-0.06744 0.5122851,-0.008 0.4690227,0.04098 0.3932486,0.101818 -0.00736,-0.417442 -0.05224,-0.287287 L 3.3430543,12.163981 3.1160505,11.963375 2.7596287,11.793562 2.401939,11.723647 2.0174247,11.683956 0.67643893,11.640612 Z"
       style="opacity:0.5;fill:none;stroke:#000000;stroke-width:0.264583px;stroke-linecap:butt;stroke-linejoin:miter;stroke-opacity:1" />
    <path
       id="path80"
       d="m 3.5066036,13.930078 v 0.384162 l -0.047673,0.329383 -0.1762781,0.309325 -0.2779223,0.239017 -0.3940674,0.199757 -0.4398653,0.05968 -0.4731105,-0.03481 -0.4064,-0.164109 -0.1846686,-0.231764 -0.088874,-0.276012 0.030743,-0.363563 0.2186977,-0.302734 0.2861767,-0.141013 0.3506348,-0.09802 0.4376737,-0.02481 0.4217209,-6.61e-4 0.3673805,0.01978 z"
       style="opacity:0.5;fill:none;stroke:#000000;stroke-width:0.264583px;stroke-linecap:butt;stroke-linejoin:miter;stroke-opacity:1" />
  </g>
  <g
     inkscape:label="B"
     id="g90">
    <text
       xml:space="preserve"
       style="font-size:10.5833px;line-height:1.25;font-family:'Cascadia Code';-inkscape-font-specification:'Cascadia Code, Normal';letter-spacing:0px;word-spacing:0px;display:inline;opacity:0.25;stroke-width:0.264583"
       x="6.5239043"
       y="7.3593092"
       id="text84"><tspan
         sodipodi:role="line"
         id="tspan82"
         x="6.5239043"
         y="7.3593092"
         style="stroke-width:0.264583">B</tspan></text>
    <path
       id="path97"
       d="m 8.3861613,3.9700956 h 1.4457873 l 0.3199874,0.019913 0.363708,0.077564 0.371779,0.1988389 0.264197,0.303336 0.121614,0.2863816 0.03455,0.424919 -0.06754,0.3454551 -0.148234,0.291103 -0.244436,0.2298708 -0.293682,0.1389488 -0.294615,0.06647 -0.3077116,0.033202 H 8.3858141 Z"
       style="opacity:0.5;fill:none;stroke:#000000;stroke-width:0.264583px;stroke-linecap:butt;stroke-linejoin:miter;stroke-opacity:1" />
    <path
       id="path95"
       d="m 8.378164,1.007667 h 1.0161087 l 0.3838763,0.032721 0.334221,0.077086 0.300352,0.1501931 0.200532,0.1780999 0.129714,0.2125134 0.04665,0.3165761 -0.03952,0.3112276 -0.142415,0.2743108 -0.230461,0.2095149 -0.300939,0.1310248 -0.3159203,0.069392 -0.2837574,0.031434 H 8.3678526 Z"
       style="opacity:0.5;fill:none;stroke:#000000;stroke-width:0.264583px;stroke-linecap:butt;stroke-linejoin:miter;stroke-opacity:1" />
    <path
       id="path92"
       d="m 7.3594113,0.01634498 h 2.2393322 l 0.5970935,0.05282091 0.526209,0.13761806 0.391102,0.20431512 0.318239,0.23367093 0.249217,0.3849532 0.137102,0.3939834 0.04295,0.4009469 -0.01806,0.3491436 -0.124674,0.3774127 -0.190955,0.2919831 -0.313323,0.255333 -0.302232,0.1564282 -0.333408,0.1137314 -0.470501,0.069261 v 0.078834 l 0.348909,0.016118 0.438815,0.061571 0.390397,0.1255514 0.327821,0.1606328 0.269174,0.2012034 0.25207,0.2956616 0.153846,0.3422274 0.06788,0.3421803 0.03321,0.316098 -0.02362,0.3326138 -0.103989,0.3731442 -0.107531,0.3100761 -0.241655,0.317518 -0.222804,0.2169422 -0.25304,0.1468366 -0.249073,0.1253542 -0.340855,0.094023 -0.332481,0.049072 H 7.3545995 Z"
       style="opacity:0.5;fill:none;stroke:#000000;stroke-width:0.264583px;stroke-linecap:butt;stroke-linejoin:miter;stroke-opacity:1" />
  </g>
  <g
     inkscape:label="&quot;"
     id="g47">
    <path
       id="path33"
       d="m 9.2665327,11.398734 h 1.1709503 l -0.08712,3.297347 H 9.3566762 Z"
       style="opacity:0.5;fill:none;stroke:#000000;stroke-width:0.264583px;stroke-linecap:butt;stroke-linejoin:miter;stroke-opacity:1" />
    <path
       id="path35"
       d="m 11.331635,11.416887 h 1.202729 l -0.117445,3.29174 h -0.990882 z"
       style="opacity:0.5;fill:none;stroke:#000000;stroke-width:0.264583px;stroke-linecap:butt;stroke-linejoin:miter;stroke-opacity:1" />
    <text
       id="text32"
       y="18.735422"
       x="7.79351"
       style="font-size:10.5833px;line-height:1.25;font-family:'Cascadia Code';-inkscape-font-specification:'Cascadia Code, Normal';letter-spacing:0px;word-spacing:0px;display:inline;opacity:0.25;stroke-width:0.264583;image-rendering:auto"
       xml:space="preserve"><tspan
         style="stroke-width:0.264583"
         y="18.735422"
         x="7.79351"
         id="tspan30"
         sodipodi:role="line">&quot;</tspan></text>
    <text
       id="text51"
       y="11.209162"
       x="21.677914"
       style="font-size:10.5833px;line-height:1.25;font-family:'Cascadia Code';-inkscape-font-specification:'Cascadia Code, Normal';letter-spacing:0px;word-spacing:0px;stroke-width:0.264583"
       xml:space="preserve"><tspan
         style="stroke-width:0.264583"
         y="11.209162"
         x="21.677914"
         id="tspan49"
         sodipodi:role="line"></tspan></text>
  </g>
</svg>
